<?xml version="1.0" encoding="utf-8"?>
<svg version="1.1" id="Layer_1" x="0px" y="0px" width="100%" viewBox="0 0 199 684" enable-background="new 0 0 199 684" xmlns="http://www.w3.org/2000/svg" xmlns:bx="https://boxy-svg.com">
  <path opacity="1.000000" stroke="none" d="M 25.045 511.277 C 24.992 445.968 24.937 380.659 25.756 314.817 C 78.989 314.266 131.353 314.247 183.717 314.227 C 183.69 379.713 183.664 445.198 182.781 511.097 C 146.486 511.505 111.045 511.462 75.602 511.51 C 58.722 511.533 41.84 511.731 24.937 511.705 C 24.92 511.559 25.045 511.277 25.045 511.277 Z" style="fill: rgb(239, 239, 219);"/>
  <path fill="#1D262D" opacity="1.000000" stroke="none" d=" M21.068413,512.204712 C48.050945,511.683594 75.082054,511.648193 102.577713,511.524078 C103.042252,511.435364 102.978653,511.717163 102.988907,512.329590 C103.000603,566.612366 103.002052,620.282654 103.003502,673.953003 C75.907936,673.953003 48.812374,673.953003 21.116995,673.953003 C21.116995,619.898804 21.116995,566.294617 21.068413,512.204712 z"/>
  <path fill="#192026" opacity="1.000000" stroke="none" d="M 102.682 673.787 C 102.214 619.806 102.213 565.911 102.211 511.545 C 110.904 510.955 119.598 510.757 128.294 510.735 C 146.547 510.686 164.801 510.73 183.524 510.775 C 183.994 564.942 183.994 619.07 183.994 673.873 C 156.778 673.873 129.963 673.873 102.682 673.787 Z" style=""/>
  <path fill="#192026" opacity="1.000000" stroke="none" d="M 183.729 314.042 C 157.012 314.532 130.302 314.551 103.125 314.648 C 102.656 314.726 102.569 314.506 102.665 313.99 C 102.727 299.157 102.693 284.841 102.662 270.524 C 102.49 193.447 102.32 116.369 102.172 39.135 C 102.194 38.978 102.334 38.693 102.774 38.819 C 111.914 39.015 120.613 39.084 129.313 39.154 C 129.446 76.144 129.463 113.135 129.826 150.123 C 129.887 156.371 130.959 162.721 132.407 168.826 C 136.009 184.014 144.499 196.532 155.242 207.56 C 171.718 224.472 179.695 245.105 181.593 268.173 C 182.835 283.263 183.058 298.436 183.729 314.042 Z" style=""/>
  <path fill="#D1D2D1" opacity="1.000000" stroke="none" d="M 129.882 39.99 C 120.874 40.116 112.174 40.046 103.024 39.369 C 102.529 29.035 102.485 19.309 102.441 9.584 C 109.737 9.563 117.039 9.39 124.326 9.638 C 125.949 9.693 128.383 10.851 128.951 12.153 C 130.563 15.841 131.401 19.866 132.606 24.157 C 132.636 28.278 132.817 32.02 132.466 35.712 C 132.331 37.132 130.984 38.437 129.882 39.99 Z"/>
  <path fill="#D1D1D1" opacity="1.000000" stroke="none" d=" M21.222889,317.427399 C21.477547,323.414520 21.608088,329.857635 21.554296,336.661896 C21.279566,330.643158 21.189169,324.263275 21.222889,317.427399 z"/>
  <path fill="#1D272E" opacity="1.000000" stroke="none" d=" M102.924744,39.808121 C102.949829,116.885353 102.974731,193.962585 103.000175,271.039825 C103.004906,285.356598 103.011856,299.673340 103.027344,314.453369 C76.010719,314.969330 48.984535,315.022034 21.493126,315.073303 C21.495871,294.111206 21.115911,273.114014 25.579498,252.413345 C29.260233,235.343307 36.971344,220.492615 48.918468,207.865845 C61.331333,194.746811 70.315346,179.869064 73.435966,161.842834 C73.774734,159.885971 74.043503,157.886230 74.044769,155.906204 C74.069298,117.426758 74.049164,78.947289 74.445007,39.966099 C84.209465,39.578957 93.567101,39.693539 102.924744,39.808121 z"/>
  <path fill="#F5F6F6" opacity="1.000000" stroke="none" d=" M102.947845,39.650993 C93.567101,39.693539 84.209465,39.578957 74.378510,39.468117 C73.286018,36.041935 72.220001,32.617649 72.176689,29.180477 C72.135559,25.916798 70.059959,21.766096 75.055908,19.662546 C75.899864,19.307198 76.179123,16.718573 76.087997,15.199657 C75.799797,10.396190 77.917412,8.683228 82.612465,8.884886 C89.074028,9.162416 95.554924,8.989691 102.491928,9.038895 C103.000313,18.793510 103.044304,28.519094 103.099823,38.726807 C103.111343,39.208939 102.970947,39.493862 102.947845,39.650993 z"/>
  <rect x="21.132" y="314.966" width="34.427" height="197.324" style="stroke: rgb(0, 0, 0); stroke-opacity: 0; fill: rgb(185, 39, 71);"/>
  <rect x="148.872" y="314.149" width="34.819" height="196.853" style="stroke: rgb(0, 0, 0); stroke-opacity: 0; fill: rgb(185, 39, 71);"/>
  <path d="M 55.931 -348.883 L 55.931 -314.61 L 20.875 -314.61 L 55.931 -348.883 Z" style="stroke-opacity: 0; stroke: rgb(183, 25, 25); fill: rgb(68, 15, 74);" transform="matrix(1, 0, 0, -1, 0, 0)" bx:shape="triangle 20.875 -348.883 35.056 34.273 1 0 1@4b0d02a3"/>
  <rect x="54.505" y="314.095" width="95.354" height="33.593" style="stroke: rgb(0, 0, 0); stroke-width: 0px; fill: rgb(68, 15, 74);"/>
  <rect x="55.279" y="478.536" width="94.098" height="33.593" style="stroke: rgb(0, 0, 0); stroke-width: 0px; fill: rgb(68, 15, 74);"/>
  <path d="M -148.88 -348.297 L -148.88 -314.024 L -183.936 -314.024 L -148.88 -348.297 Z" style="stroke-opacity: 0; stroke: rgb(183, 25, 25); fill: rgb(68, 15, 74);" transform="matrix(-1, 0, 0, -1, 0, 0)" bx:shape="triangle -183.936 -348.297 35.056 34.273 1 0 1@cc54bc7b"/>
  <path d="M -148.879 477.571 L -148.879 511.844 L -183.935 511.844 L -148.879 477.571 Z" style="stroke-opacity: 0; stroke: rgb(183, 25, 25); fill: rgb(68, 15, 74);" transform="matrix(-1, 0, 0, 1, 0, 0)" bx:shape="triangle -183.935 477.571 35.056 34.273 1 0 1@fb8d5a92"/>
  <path d="M 55.834 478.509 L 55.834 512.782 L 20.778 512.782 L 55.834 478.509 Z" style="stroke-opacity: 0; stroke: rgb(183, 25, 25); fill: rgb(68, 15, 74);" bx:shape="triangle 20.778 478.509 35.056 34.273 1 0 1@9545781d"/>
  <text style="fill: rgb(51, 51, 51); font-family: FreeSerif; font-size: 24px; text-anchor: middle; text-transform: capitalize; white-space: pre;" transform="matrix(1, 0, 0, 1, 34.056335, 12.135016)" x="69.09300231933594" y="372.4169921875">VINO<tspan x="69.09300231933594" dy="1em">​</tspan>TINTO</text>
  <text style="fill: rgb(185, 39, 71); font-family: FreeSerif; font-size: 14px; font-style: italic; font-weight: 700; text-anchor: middle; text-transform: capitalize; white-space: pre;" transform="matrix(1, 0, 0, 1, 32.490303, 57.091671)" x="69.093" y="372.417">ESPAÑOL</text>
  <text style="fill: rgb(51, 51, 51); font-family: FreeSerif; font-size: 10px; white-space: pre;" x="58.523" y="474.195">12% vol</text>
  <text style="fill: rgb(51, 51, 51); font-family: FreeSerif; font-size: 10px; white-space: pre;" x="117.025" y="474">750 ml</text>
</svg>